#!OML:ASF X:\für Bonn\!DataBase\2005_08_11_Bastian_Final\c3d\Bastian.ASF
:FULLY-SPECIFIED
:DEGREES
392
root 0.932802 3.72724 -4.71311 124.234 14.539 -183.849
lowerback 74.6831 -5.8117 -18.5807
upperback 22.7766 -2.11889 -4.19145
thorax 6.58309 5.13959 3.85804
lowerneck -4.19125 2.64302 -4.71707
upperneck -20.6364 5.05553 -0.551133
head -5.66399 3.56741 0.361346
rclavicle 3.40916e-014 -4.63665e-014
rhumerus -19.1171 -0.851792 -75.1034
rradius 37.9743
rwrist -182.396
rhand -2.3778 5.32017
rfingers 7.12502
rthumb 23.311 -23.2885
lclavicle 3.40916e-014 -4.63665e-014
lhumerus 52.7247 -7.89051 0.784668
lradius 43.5828
lwrist 207.259
lhand -28.1793 16.3879
lfingers 7.12502
lthumb -1.55907 46.362
rfemur -89.2774 -22.4498 47.5174
rtibia 141.253
rfoot -5.50734 -11.0198
rtoes 34.2195
lfemur -86.2652 53.5411 -10.6188
ltibia 147.432
lfoot -3.55063 -24.3809
ltoes -9.79071
393
root 0.955604 3.69172 -4.64512 123.987 14.3688 -184.082
lowerback 74.5644 -5.59869 -18.7874
upperback 22.6573 -2.11591 -4.28634
thorax 6.46253 5.12613 3.81404
lowerneck -4.11971 2.66201 -4.63168
upperneck -20.6569 5.1046 -0.397957
head -5.68441 3.57451 0.391606
rclavicle -4.82053e-014 2.66371e-014
rhumerus -19.4635 -0.884724 -75.5298
rradius 38.201
rwrist -182.486
rhand -2.13933 5.20422
rfingers 7.12502
rthumb 23.5398 -23.3753
lclavicle -4.82053e-014 2.66371e-014
lhumerus 53.0545 -8.1121 0.428114
lradius 43.9606
lwrist 207.37
lhand -28.284 16.6154
lfingers 7.12502
lthumb -1.66022 46.5887
rfemur -89.2683 -21.862 47.3397
rtibia 139.491
rfoot -4.69086 -11.3398
rtoes 34.1504
lfemur -86.2892 52.6388 -10.6926
ltibia 147.001
lfoot -2.65326 -24.2989
ltoes -9.93578
394
root 0.976831 3.65847 -4.57165 123.745 14.1967 -184.35
lowerback 74.4986 -5.34744 -19.0002
upperback 22.4778 -2.11303 -4.354
thorax 6.2778 5.10455 3.79187
lowerneck -4.03558 2.68749 -4.49989
upperneck -20.5901 5.13746 -0.321253
head -5.67579 3.56808 0.392384
rclavicle 5.9536e-014 -3.99557e-014
rhumerus -19.873 -0.930366 -75.8882
rradius 38.4543
rwrist -182.573
rhand -2.03523 5.07233
rfingers 7.12502
rthumb 23.6396 -23.4943
lclavicle 5.9536e-014 -3.99557e-014
lhumerus 53.3886 -8.47518 -0.224263
lradius 44.4066
lwrist 207.782
lhand -28.2104 16.8425
lfingers 7.12502
lthumb -1.58914 46.8163
rfemur -89.172 -21.4017 47.1295
rtibia 137.662
rfoot -3.90675 -11.5715
rtoes 33.8627
lfemur -86.2599 51.7019 -10.789
ltibia 146.528
lfoot -1.71672 -24.1561
ltoes -9.87419
395
root 0.997119 3.62702 -4.49505 123.468 14.0356 -184.634
lowerback 74.4748 -5.0588 -19.2611
upperback 22.3153 -2.08093 -4.40965
thorax 6.12615 5.09791 3.79298
lowerneck -4.14344 2.70753 -4.36271
upperneck -20.3439 5.16234 -0.261301
head -5.57795 3.55342 0.395082
rclavicle 4.96962e-015 3.49861e-014
rhumerus -20.2479 -0.92607 -76.2147
rradius 38.7427
rwrist -182.602
rhand -1.94165 4.96113
rfingers 7.12502
rthumb 23.7294 -23.5939
lclavicle 4.96962e-015 3.49861e-014
lhumerus 53.7117 -8.77468 -0.876161
lradius 44.8737
lwrist 208.236
lhand -28.1409 17.0099
lfingers 7.12502
lthumb -1.52199 46.9842
rfemur -88.8974 -21.0073 46.8832
rtibia 135.704
rfoot -3.08864 -11.7456
rtoes 32.9833
lfemur -86.0932 50.8466 -10.8255
ltibia 146.02
lfoot -0.904888 -24.0444
ltoes -10.1566
396
root 1.01479 3.59594 -4.41716 123.237 13.864 -184.925
lowerback 74.449 -4.813 -19.4819
upperback 22.1268 -2.08892 -4.5045
thorax 5.93652 5.0813 3.74275
lowerneck -4.21089 2.74352 -4.15586
upperneck -20.1077 5.20139 -0.224189
head -5.48797 3.54179 0.377527
rclavicle -7.54388e-014 2.19657e-014
rhumerus -20.6421 -0.926523 -76.5845
rradius 39.0493
rwrist -182.665
rhand -1.91558 4.90304
rfingers 7.12502
rthumb 23.7544 -23.6487
lclavicle -7.54388e-014 2.19657e-014
lhumerus 54.0282 -9.04022 -1.46743
lradius 45.3247
lwrist 208.59
lhand -28.0958 17.2225
lfingers 7.12502
lthumb -1.47839 47.1972
rfemur -88.5477 -20.6517 46.6177
rtibia 133.622
rfoot -2.17085 -11.8688
rtoes 31.5777
lfemur -86.0145 49.9481 -10.9556
ltibia 145.511
lfoot -0.0925352 -23.8823
ltoes -10.5034
397
root 1.03104 3.56527 -4.3397 123.002 13.6919 -185.218
lowerback 74.4523 -4.56411 -19.6979
upperback 21.9409 -2.07915 -4.59536
thorax 5.7521 5.07942 3.6888
lowerneck -4.31122 2.7556 -3.91868
upperneck -19.8841 5.2086 -0.21477
head -5.39452 3.51705 0.347969
rclavicle 2.9122e-014 -2.06736e-014
rhumerus -21.0183 -1.03725 -76.9329
rradius 39.3575
rwrist -182.611
rhand -1.92672 4.82587
rfingers 7.12502
rthumb 23.7437 -23.7273
lclavicle 2.9122e-014 -2.06736e-014
lhumerus 54.3618 -9.26498 -2.0524
lradius 45.7954
lwrist 208.95
lhand -28.0089 17.4239
lfingers 7.12502
lthumb -1.3945 47.3991
rfemur -88.112 -20.3727 46.3109
rtibia 131.547
rfoot -1.25203 -11.8725
rtoes 29.9042
lfemur -85.9334 49.0977 -11.085
ltibia 144.993
lfoot 0.77613 -23.7156
ltoes -10.4666
398
root 1.0462 3.53327 -4.25915 122.798 13.4909 -185.507
lowerback 74.4673 -4.31351 -19.9282
upperback 21.7314 -2.09664 -4.66764
thorax 5.5452 5.05615 3.6656
lowerneck -4.34407 2.78329 -3.69163
upperneck -19.7019 5.2279 -0.236403
head -5.32523 3.50107 0.307675
rclavicle 8.54774e-014 -1.27222e-014
rhumerus -21.377 -1.0094 -77.2789
rradius 39.658
rwrist -182.651
rhand -1.89642 4.7674
rfingers 7.12502
rthumb 23.7727 -23.782
lclavicle 8.54774e-014 -1.27222e-014
lhumerus 54.6551 -9.48617 -2.61261
lradius 46.2536
lwrist 209.321
lhand -27.9406 17.6236
lfingers 7.12502
lthumb -1.32858 47.5992
rfemur -87.735 -20.1471 45.9814
rtibia 129.571
rfoot -0.333355 -11.8295
rtoes 28.2496
lfemur -85.9094 48.2231 -11.3162
ltibia 144.461
lfoot 1.60063 -23.5154
ltoes -10.7335
399
root 1.0604 3.5027 -4.17511 122.571 13.3029 -185.814
lowerback 74.4999 -4.05874 -20.163
upperback 21.5323 -2.09954 -4.75685
thorax 5.35293 5.04906 3.6206
lowerneck -4.35614 2.79729 -3.43352
upperneck -19.5973 5.23201 -0.282599
head -5.28198 3.48183 0.253156
rclavicle -4.75095e-014 -7.05686e-014
rhumerus -21.7366 -1.02075 -77.6316
rradius 39.99
rwrist -182.68
rhand -1.88127 4.71894
rfingers 7.12502
rthumb 23.7873 -23.8286
lclavicle -4.75095e-014 -7.05686e-014
lhumerus 54.9885 -9.67797 -3.1825
lradius 46.6728
lwrist 209.697
lhand -27.8429 17.7938
lfingers 7.12502
lthumb -1.23416 47.77
rfemur -87.3196 -20.0051 45.647
rtibia 127.675
rfoot 0.552828 -11.7401
rtoes 26.4256
lfemur -85.8538 47.4373 -11.5612
ltibia 143.905
lfoot 2.3616 -23.3002
ltoes -11.0928
